<?xml version="1.0" encoding="UTF-8"?>
<svg xmlns="http://www.w3.org/2000/svg" xmlns:xlink="http://www.w3.org/1999/xlink" width="283.5pt" height="283.499996pt" viewBox="0 0 283.5 283.499996" version="1.2">
<defs>
<clipPath id="clip1">
  <path d="M 40.777344 28.355469 L 242.664062 28.355469 L 242.664062 230.238281 L 40.777344 230.238281 Z M 40.777344 28.355469 "/>
</clipPath>
<clipPath id="clip2">
  <path d="M 57.40625 44.988281 L 226.117188 44.988281 L 226.117188 213.699219 L 57.40625 213.699219 Z M 57.40625 44.988281 "/>
</clipPath>
<clipPath id="clip3">
  <path d="M 31.773438 155.738281 L 250.671875 155.738281 L 250.671875 181.824219 L 31.773438 181.824219 Z M 31.773438 155.738281 "/>
</clipPath>
</defs>
<g id="surface1">
<g clip-path="url(#clip1)" clip-rule="nonzero">
<path style=" stroke:none;fill-rule:nonzero;fill:rgb(100%,36.079407%,36.079407%);fill-opacity:1;" d="M 238.378906 129.296875 C 238.378906 124.53125 243.265625 119.484375 242.621094 114.925781 C 241.9375 110.242188 235.835938 106.765625 234.503906 102.324219 C 233.171875 97.804688 236.402344 91.585938 234.464844 87.34375 C 232.484375 83.066406 225.621094 81.449219 223.074219 77.53125 C 220.492188 73.574219 221.863281 66.710938 218.757812 63.203125 C 215.648438 59.644531 208.621094 60.011719 205.027344 56.941406 C 201.476562 53.875 200.828125 46.925781 196.835938 44.386719 C 192.875 41.839844 186.214844 44.144531 181.894531 42.203125 C 177.613281 40.261719 175.03125 33.765625 170.464844 32.429688 C 165.988281 31.144531 160.25 35.21875 155.527344 34.535156 C 150.882812 33.882812 146.523438 28.355469 141.71875 28.355469 C 136.910156 28.355469 132.550781 33.882812 127.949219 34.535156 C 123.226562 35.21875 117.488281 31.144531 113.011719 32.429688 C 108.445312 33.765625 105.820312 40.261719 101.582031 42.203125 C 97.261719 44.144531 90.597656 41.882812 86.640625 44.386719 C 82.648438 46.925781 82 53.875 78.449219 56.941406 C 74.890625 60.011719 67.828125 59.644531 64.71875 63.203125 C 61.613281 66.710938 62.984375 73.574219 60.394531 77.53125 C 57.855469 81.449219 50.992188 83.066406 49.011719 87.34375 C 47.074219 91.585938 50.304688 97.765625 48.972656 102.324219 C 47.640625 106.765625 41.539062 110.242188 40.855469 114.925781 C 40.210938 119.484375 45.097656 124.53125 45.097656 129.296875 C 45.097656 134.066406 40.210938 139.109375 40.855469 143.667969 C 41.539062 148.355469 47.640625 151.828125 48.972656 156.269531 C 50.304688 160.789062 47.074219 167.007812 49.011719 171.25 C 50.992188 175.527344 57.855469 177.144531 60.394531 181.0625 C 62.984375 185.019531 61.613281 191.882812 64.71875 195.394531 C 67.828125 198.949219 74.851562 198.582031 78.449219 201.65625 C 82 204.722656 82.648438 211.667969 86.640625 214.207031 C 90.597656 216.753906 97.261719 214.449219 101.582031 216.394531 C 105.863281 218.332031 108.445312 224.828125 113.011719 226.164062 C 117.488281 227.453125 123.226562 223.375 127.949219 224.0625 C 132.550781 224.710938 136.910156 230.238281 141.71875 230.238281 C 146.523438 230.238281 150.882812 224.710938 155.484375 224.0625 C 160.210938 223.375 165.945312 227.453125 170.421875 226.164062 C 174.988281 224.828125 177.613281 218.332031 181.855469 216.394531 C 186.171875 214.449219 192.835938 216.710938 196.792969 214.207031 C 200.785156 211.667969 201.4375 204.722656 204.988281 201.65625 C 208.542969 198.582031 215.609375 198.949219 218.714844 195.394531 C 221.828125 191.882812 220.453125 185.019531 223.039062 181.0625 C 225.578125 177.144531 232.445312 175.527344 234.421875 171.25 C 236.359375 167.007812 233.128906 160.832031 234.464844 156.269531 C 235.796875 151.828125 241.894531 148.355469 242.582031 143.667969 C 243.265625 139.109375 238.378906 134.066406 238.378906 129.296875 Z M 238.378906 129.296875 "/>
</g>
<g clip-path="url(#clip2)" clip-rule="nonzero">
<path style=" stroke:none;fill-rule:nonzero;fill:rgb(100%,100%,100%);fill-opacity:1;" d="M 141.761719 44.988281 C 95.234375 44.988281 57.40625 82.847656 57.40625 129.34375 C 57.40625 175.875 95.234375 213.699219 141.761719 213.699219 C 188.261719 213.699219 226.117188 175.875 226.117188 129.34375 C 226.117188 82.847656 188.261719 44.988281 141.761719 44.988281 Z M 141.761719 207.121094 C 98.875 207.121094 63.988281 172.230469 63.988281 129.34375 C 63.988281 86.457031 98.875 51.570312 141.761719 51.570312 C 184.648438 51.570312 219.542969 86.457031 219.542969 129.34375 C 219.542969 172.230469 184.648438 207.121094 141.761719 207.121094 Z M 141.761719 207.121094 "/>
</g>
<path style=" stroke:none;fill-rule:nonzero;fill:rgb(100%,100%,100%);fill-opacity:1;" d="M 141.761719 55.953125 C 101.308594 55.953125 68.375 88.886719 68.375 129.34375 C 68.375 169.796875 101.308594 202.730469 141.761719 202.730469 C 182.21875 202.730469 215.152344 169.796875 215.152344 129.34375 C 215.152344 88.886719 182.21875 55.953125 141.761719 55.953125 Z M 141.761719 55.953125 "/>
<path style=" stroke:none;fill-rule:nonzero;fill:rgb(94.898987%,63.529968%,17.248535%);fill-opacity:1;" d="M 123.347656 84.625 L 123.347656 89.539062 C 123.347656 89.835938 123.308594 90.132812 123.230469 90.414062 C 123.148438 90.710938 123.019531 90.980469 122.828125 91.21875 C 122.652344 91.453125 122.410156 91.644531 122.097656 91.785156 C 121.796875 91.9375 121.410156 92.023438 120.9375 92.023438 C 120.574219 92.023438 120.257812 91.976562 119.992188 91.878906 C 119.738281 91.785156 119.527344 91.65625 119.355469 91.503906 C 119.195312 91.34375 119.078125 91.160156 119 90.957031 C 118.917969 90.75 118.882812 90.546875 118.882812 90.34375 C 118.882812 90.167969 118.90625 89.988281 118.953125 89.800781 C 119.011719 89.613281 119.101562 89.441406 119.214844 89.28125 C 119.320312 89.128906 119.460938 88.996094 119.640625 88.902344 C 119.828125 88.808594 120.050781 88.761719 120.324219 88.761719 C 120.402344 88.761719 120.496094 88.773438 120.609375 88.785156 C 120.714844 88.800781 120.828125 88.851562 120.9375 88.925781 C 121.0625 89.007812 121.164062 89.132812 121.246094 89.304688 C 121.324219 89.464844 121.363281 89.683594 121.363281 89.964844 C 121.25 89.855469 121.140625 89.78125 121.03125 89.753906 C 120.9375 89.734375 120.851562 89.730469 120.773438 89.730469 C 120.453125 89.730469 120.234375 89.800781 120.113281 89.941406 C 120 90.097656 119.945312 90.261719 119.945312 90.4375 C 119.945312 90.5625 119.957031 90.679688 119.992188 90.792969 C 120.039062 90.917969 120.101562 91.019531 120.183594 91.101562 C 120.277344 91.195312 120.378906 91.273438 120.488281 91.335938 C 120.597656 91.394531 120.730469 91.429688 120.890625 91.429688 C 121.15625 91.429688 121.371094 91.324219 121.53125 91.125 C 121.699219 90.933594 121.789062 90.628906 121.789062 90.203125 L 121.789062 87.273438 C 121.613281 87.601562 121.375 87.855469 121.082031 88.027344 C 120.777344 88.1875 120.425781 88.265625 120.015625 88.265625 C 119.605469 88.265625 119.226562 88.1875 118.882812 88.027344 C 118.535156 87.855469 118.226562 87.613281 117.960938 87.296875 C 117.707031 86.984375 117.511719 86.597656 117.371094 86.136719 C 117.230469 85.683594 117.15625 85.167969 117.15625 84.601562 C 117.15625 84.054688 117.230469 83.539062 117.371094 83.066406 C 117.511719 82.582031 117.726562 82.164062 118.007812 81.8125 C 118.292969 81.472656 118.648438 81.199219 119.070312 81.011719 C 119.496094 80.808594 119.980469 80.703125 120.535156 80.703125 C 120.851562 80.703125 121.15625 80.738281 121.457031 80.796875 C 121.773438 80.863281 122.050781 80.976562 122.285156 81.128906 C 122.535156 81.269531 122.742188 81.460938 122.898438 81.695312 C 123.054688 81.933594 123.136719 82.226562 123.136719 82.570312 C 123.136719 82.804688 123.078125 83.007812 122.96875 83.160156 C 122.875 83.304688 122.710938 83.375 122.472656 83.375 C 122.378906 83.375 122.242188 83.363281 122.074219 83.328125 C 121.894531 83.277344 121.742188 83.195312 121.601562 83.066406 C 121.707031 83.019531 121.789062 82.917969 121.835938 82.757812 C 121.894531 82.589844 121.929688 82.441406 121.929688 82.308594 C 121.929688 82.234375 121.914062 82.140625 121.882812 82.027344 C 121.867188 81.921875 121.824219 81.8125 121.765625 81.71875 C 121.699219 81.613281 121.601562 81.519531 121.457031 81.4375 C 121.328125 81.359375 121.164062 81.316406 120.960938 81.316406 C 120.644531 81.316406 120.359375 81.414062 120.113281 81.601562 C 119.859375 81.777344 119.644531 82.015625 119.472656 82.308594 C 119.3125 82.59375 119.191406 82.9375 119.09375 83.328125 C 119.011719 83.703125 118.976562 84.105469 118.976562 84.53125 C 118.976562 85.003906 119.023438 85.417969 119.121094 85.761719 C 119.214844 86.089844 119.335938 86.367188 119.496094 86.585938 C 119.652344 86.8125 119.828125 86.976562 120.015625 87.082031 C 120.207031 87.195312 120.394531 87.25 120.585938 87.25 C 120.960938 87.25 121.273438 87.03125 121.53125 86.585938 C 121.777344 86.148438 121.917969 85.488281 121.953125 84.601562 Z M 123.347656 84.625 "/>
<path style=" stroke:none;fill-rule:nonzero;fill:rgb(94.898987%,63.529968%,17.248535%);fill-opacity:1;" d="M 126.636719 83.585938 C 127.1875 83.585938 127.617188 83.738281 127.9375 84.035156 C 128.269531 84.335938 128.480469 84.808594 128.574219 85.453125 L 128.644531 85.453125 C 128.753906 85.453125 128.882812 85.441406 129.023438 85.40625 C 129.164062 85.359375 129.308594 85.304688 129.449219 85.242188 C 129.601562 85.179688 129.757812 85.109375 129.898438 85.027344 C 130.039062 84.933594 130.164062 84.839844 130.277344 84.746094 L 130.441406 85.074219 C 130.359375 85.203125 130.253906 85.324219 130.109375 85.429688 C 129.980469 85.523438 129.832031 85.613281 129.664062 85.6875 C 129.503906 85.773438 129.332031 85.84375 129.140625 85.902344 C 128.964844 85.96875 128.792969 86.015625 128.621094 86.042969 C 128.621094 86.089844 128.621094 86.148438 128.621094 86.210938 C 128.621094 86.257812 128.621094 86.304688 128.621094 86.351562 C 128.621094 86.8125 128.582031 87.242188 128.503906 87.652344 C 128.421875 88.046875 128.292969 88.394531 128.101562 88.691406 C 127.925781 88.972656 127.6875 89.203125 127.394531 89.375 C 127.109375 89.550781 126.753906 89.636719 126.332031 89.636719 C 126.027344 89.636719 125.746094 89.589844 125.480469 89.492188 C 125.226562 89.398438 124.996094 89.25 124.792969 89.042969 C 124.585938 88.84375 124.421875 88.566406 124.296875 88.21875 C 124.167969 87.875 124.109375 87.457031 124.109375 86.964844 C 124.109375 86.621094 124.140625 86.257812 124.203125 85.878906 C 124.28125 85.488281 124.417969 85.121094 124.605469 84.792969 C 124.792969 84.449219 125.054688 84.164062 125.386719 83.941406 C 125.714844 83.703125 126.128906 83.585938 126.636719 83.585938 Z M 126.660156 88.523438 C 126.816406 88.523438 126.957031 88.472656 127.085938 88.359375 C 127.210938 88.234375 127.3125 88.074219 127.394531 87.886719 C 127.46875 87.6875 127.523438 87.449219 127.558594 87.179688 C 127.589844 86.894531 127.605469 86.585938 127.605469 86.257812 L 127.605469 86.089844 C 127.417969 86.042969 127.289062 85.96875 127.226562 85.855469 C 127.179688 85.75 127.15625 85.628906 127.15625 85.5 C 127.15625 85.328125 127.179688 85.203125 127.226562 85.121094 C 127.289062 85.027344 127.359375 84.96875 127.441406 84.933594 C 127.359375 84.667969 127.257812 84.496094 127.132812 84.414062 C 127.003906 84.335938 126.902344 84.296875 126.828125 84.296875 C 126.648438 84.296875 126.5 84.382812 126.378906 84.554688 C 126.246094 84.714844 126.148438 84.921875 126.070312 85.167969 C 125.988281 85.40625 125.933594 85.675781 125.90625 85.972656 C 125.871094 86.273438 125.859375 86.5625 125.859375 86.847656 C 125.859375 87.195312 125.882812 87.480469 125.929688 87.699219 C 125.976562 87.921875 126.035156 88.09375 126.117188 88.21875 C 126.195312 88.328125 126.285156 88.40625 126.378906 88.453125 C 126.472656 88.5 126.566406 88.523438 126.660156 88.523438 Z M 126.660156 88.523438 "/>
<path style=" stroke:none;fill-rule:nonzero;fill:rgb(94.898987%,63.529968%,17.248535%);fill-opacity:1;" d="M 131.820312 83.585938 C 132.367188 83.585938 132.800781 83.738281 133.117188 84.035156 C 133.449219 84.335938 133.660156 84.808594 133.757812 85.453125 L 133.828125 85.453125 C 133.933594 85.453125 134.0625 85.441406 134.207031 85.40625 C 134.347656 85.359375 134.488281 85.304688 134.628906 85.242188 C 134.785156 85.179688 134.9375 85.109375 135.078125 85.027344 C 135.222656 84.933594 135.34375 84.839844 135.457031 84.746094 L 135.621094 85.074219 C 135.539062 85.203125 135.433594 85.324219 135.292969 85.429688 C 135.164062 85.523438 135.015625 85.613281 134.84375 85.6875 C 134.683594 85.773438 134.511719 85.84375 134.324219 85.902344 C 134.144531 85.96875 133.976562 86.015625 133.804688 86.042969 C 133.804688 86.089844 133.804688 86.148438 133.804688 86.210938 C 133.804688 86.257812 133.804688 86.304688 133.804688 86.351562 C 133.804688 86.8125 133.761719 87.242188 133.683594 87.652344 C 133.601562 88.046875 133.472656 88.394531 133.285156 88.691406 C 133.105469 88.972656 132.871094 89.203125 132.574219 89.375 C 132.292969 89.550781 131.9375 89.636719 131.511719 89.636719 C 131.210938 89.636719 130.925781 89.589844 130.660156 89.492188 C 130.40625 89.398438 130.175781 89.25 129.976562 89.042969 C 129.769531 88.84375 129.601562 88.566406 129.480469 88.21875 C 129.347656 87.875 129.289062 87.457031 129.289062 86.964844 C 129.289062 86.621094 129.320312 86.257812 129.386719 85.878906 C 129.460938 85.488281 129.597656 85.121094 129.785156 84.792969 C 129.976562 84.449219 130.234375 84.164062 130.566406 83.941406 C 130.898438 83.703125 131.3125 83.585938 131.820312 83.585938 Z M 131.84375 88.523438 C 131.996094 88.523438 132.136719 88.472656 132.269531 88.359375 C 132.390625 88.234375 132.492188 88.074219 132.574219 87.886719 C 132.652344 87.6875 132.703125 87.449219 132.738281 87.179688 C 132.769531 86.894531 132.789062 86.585938 132.789062 86.257812 L 132.789062 86.089844 C 132.597656 86.042969 132.46875 85.96875 132.410156 85.855469 C 132.363281 85.75 132.339844 85.628906 132.339844 85.5 C 132.339844 85.328125 132.363281 85.203125 132.410156 85.121094 C 132.46875 85.027344 132.539062 84.96875 132.621094 84.933594 C 132.539062 84.667969 132.4375 84.496094 132.316406 84.414062 C 132.183594 84.335938 132.085938 84.296875 132.007812 84.296875 C 131.832031 84.296875 131.683594 84.382812 131.558594 84.554688 C 131.429688 84.714844 131.328125 84.921875 131.25 85.167969 C 131.167969 85.40625 131.117188 85.675781 131.085938 85.972656 C 131.050781 86.273438 131.039062 86.5625 131.039062 86.847656 C 131.039062 87.195312 131.0625 87.480469 131.109375 87.699219 C 131.15625 87.921875 131.214844 88.09375 131.296875 88.21875 C 131.375 88.328125 131.464844 88.40625 131.558594 88.453125 C 131.652344 88.5 131.746094 88.523438 131.84375 88.523438 Z M 131.84375 88.523438 "/>
<path style=" stroke:none;fill-rule:nonzero;fill:rgb(94.898987%,63.529968%,17.248535%);fill-opacity:1;" d="M 139.550781 81.292969 L 139.550781 87.675781 C 139.550781 88.003906 139.585938 88.230469 139.667969 88.335938 C 139.765625 88.429688 139.929688 88.476562 140.164062 88.476562 C 140.382812 88.476562 140.574219 88.382812 140.734375 88.195312 C 140.886719 87.992188 140.976562 87.738281 140.992188 87.4375 L 141.488281 87.4375 C 141.425781 87.929688 141.3125 88.3125 141.160156 88.597656 C 141 88.878906 140.816406 89.105469 140.613281 89.257812 C 140.425781 89.417969 140.226562 89.515625 140.023438 89.566406 C 139.816406 89.613281 139.632812 89.636719 139.480469 89.636719 C 139.066406 89.636719 138.753906 89.539062 138.535156 89.351562 C 138.3125 89.152344 138.164062 88.878906 138.085938 88.546875 C 138.023438 88.679688 137.945312 88.808594 137.851562 88.949219 C 137.765625 89.082031 137.667969 89.199219 137.542969 89.304688 C 137.414062 89.398438 137.269531 89.480469 137.117188 89.539062 C 136.957031 89.601562 136.769531 89.636719 136.550781 89.636719 C 136.296875 89.636719 136.042969 89.589844 135.792969 89.492188 C 135.558594 89.398438 135.332031 89.25 135.132812 89.042969 C 134.945312 88.824219 134.785156 88.542969 134.660156 88.195312 C 134.53125 87.832031 134.472656 87.402344 134.472656 86.894531 C 134.472656 86.535156 134.507812 86.160156 134.589844 85.785156 C 134.683594 85.394531 134.8125 85.039062 134.992188 84.71875 C 135.164062 84.390625 135.394531 84.125 135.675781 83.917969 C 135.972656 83.699219 136.328125 83.585938 136.738281 83.585938 C 136.835938 83.585938 136.933594 83.597656 137.046875 83.609375 C 137.152344 83.628906 137.257812 83.65625 137.355469 83.703125 C 137.460938 83.738281 137.554688 83.800781 137.636719 83.894531 C 137.730469 83.976562 137.804688 84.082031 137.851562 84.222656 L 137.851562 81.53125 Z M 137.851562 84.792969 C 137.832031 84.761719 137.808594 84.71875 137.78125 84.671875 C 137.761719 84.613281 137.730469 84.554688 137.683594 84.507812 C 137.636719 84.460938 137.574219 84.425781 137.496094 84.390625 C 137.429688 84.34375 137.355469 84.320312 137.257812 84.320312 C 137.070312 84.320312 136.90625 84.40625 136.761719 84.578125 C 136.632812 84.738281 136.527344 84.933594 136.433594 85.167969 C 136.351562 85.40625 136.289062 85.675781 136.242188 85.972656 C 136.207031 86.257812 136.195312 86.527344 136.195312 86.777344 C 136.195312 87.203125 136.226562 87.53125 136.289062 87.769531 C 136.351562 87.992188 136.433594 88.160156 136.527344 88.265625 C 136.621094 88.378906 136.714844 88.441406 136.8125 88.453125 C 136.917969 88.472656 137.003906 88.476562 137.070312 88.476562 C 137.164062 88.476562 137.246094 88.464844 137.332031 88.429688 C 137.425781 88.382812 137.507812 88.324219 137.589844 88.242188 C 137.667969 88.148438 137.730469 88.039062 137.78125 87.910156 C 137.828125 87.769531 137.851562 87.613281 137.851562 87.4375 Z M 137.851562 84.792969 "/>
<path style=" stroke:none;fill-rule:nonzero;fill:rgb(94.898987%,63.529968%,17.248535%);fill-opacity:1;" d="M 149.738281 82.238281 C 149.484375 82.238281 149.199219 82.214844 148.886719 82.167969 C 148.570312 82.109375 148.25 82.042969 147.917969 81.980469 L 147.917969 89.566406 L 146.195312 89.566406 L 146.195312 81.742188 L 146.074219 81.742188 C 145.726562 81.742188 145.4375 81.785156 145.203125 81.863281 C 144.964844 81.945312 144.777344 82.0625 144.632812 82.214844 C 144.492188 82.375 144.386719 82.570312 144.328125 82.804688 C 144.28125 83.03125 144.257812 83.277344 144.257812 83.5625 C 144.257812 83.816406 144.269531 84.023438 144.304688 84.175781 C 144.332031 84.335938 144.375 84.472656 144.421875 84.578125 C 144.46875 84.671875 144.515625 84.746094 144.5625 84.792969 C 144.609375 84.839844 144.644531 84.886719 144.683594 84.933594 C 144.191406 84.933594 143.808594 84.816406 143.523438 84.578125 C 143.242188 84.34375 143.097656 83.933594 143.097656 83.351562 C 143.097656 82.972656 143.15625 82.628906 143.289062 82.308594 C 143.410156 81.980469 143.617188 81.695312 143.902344 81.460938 C 144.183594 81.222656 144.546875 81.046875 144.988281 80.917969 C 145.425781 80.773438 145.96875 80.703125 146.621094 80.703125 C 146.933594 80.703125 147.214844 80.722656 147.46875 80.75 C 147.734375 80.785156 147.976562 80.816406 148.203125 80.84375 C 148.421875 80.882812 148.640625 80.910156 148.863281 80.941406 C 149.082031 80.976562 149.320312 80.988281 149.574219 80.988281 C 149.902344 80.988281 150.175781 80.964844 150.398438 80.917969 C 150.617188 80.855469 150.808594 80.792969 150.96875 80.726562 C 150.980469 80.886719 150.992188 81.027344 150.992188 81.152344 C 150.992188 81.5 150.894531 81.765625 150.707031 81.957031 C 150.519531 82.144531 150.191406 82.238281 149.738281 82.238281 Z M 149.738281 82.238281 "/>
<path style=" stroke:none;fill-rule:nonzero;fill:rgb(94.898987%,63.529968%,17.248535%);fill-opacity:1;" d="M 156.230469 83.65625 L 156.230469 87.675781 C 156.230469 88.003906 156.265625 88.230469 156.347656 88.335938 C 156.441406 88.429688 156.605469 88.476562 156.84375 88.476562 C 157.0625 88.476562 157.25 88.382812 157.410156 88.195312 C 157.5625 87.992188 157.652344 87.738281 157.671875 87.4375 L 158.167969 87.4375 C 158.101562 87.929688 157.988281 88.3125 157.835938 88.597656 C 157.675781 88.878906 157.492188 89.105469 157.292969 89.257812 C 157.101562 89.417969 156.902344 89.515625 156.703125 89.566406 C 156.496094 89.613281 156.3125 89.636719 156.15625 89.636719 C 155.746094 89.636719 155.429688 89.539062 155.210938 89.351562 C 154.988281 89.152344 154.839844 88.878906 154.761719 88.546875 C 154.699219 88.679688 154.621094 88.808594 154.527344 88.949219 C 154.445312 89.082031 154.34375 89.199219 154.21875 89.304688 C 154.089844 89.398438 153.949219 89.480469 153.792969 89.539062 C 153.636719 89.601562 153.445312 89.636719 153.226562 89.636719 C 152.972656 89.636719 152.71875 89.589844 152.472656 89.492188 C 152.234375 89.398438 152.011719 89.25 151.808594 89.042969 C 151.621094 88.824219 151.460938 88.542969 151.335938 88.195312 C 151.207031 87.832031 151.148438 87.402344 151.148438 86.894531 C 151.148438 86.535156 151.183594 86.160156 151.265625 85.785156 C 151.359375 85.394531 151.492188 85.039062 151.667969 84.71875 C 151.839844 84.390625 152.070312 84.125 152.351562 83.917969 C 152.648438 83.699219 153.003906 83.585938 153.417969 83.585938 C 153.511719 83.585938 153.613281 83.597656 153.722656 83.609375 C 153.832031 83.628906 153.9375 83.65625 154.03125 83.703125 C 154.136719 83.738281 154.230469 83.800781 154.316406 83.894531 C 154.410156 83.976562 154.480469 84.082031 154.527344 84.222656 L 154.527344 83.65625 Z M 154.527344 84.792969 C 154.507812 84.761719 154.484375 84.71875 154.457031 84.671875 C 154.4375 84.613281 154.410156 84.554688 154.363281 84.507812 C 154.316406 84.460938 154.25 84.425781 154.171875 84.390625 C 154.109375 84.34375 154.03125 84.320312 153.9375 84.320312 C 153.746094 84.320312 153.582031 84.40625 153.441406 84.578125 C 153.308594 84.738281 153.203125 84.933594 153.109375 85.167969 C 153.027344 85.40625 152.96875 85.675781 152.921875 85.972656 C 152.886719 86.257812 152.875 86.527344 152.875 86.777344 C 152.875 87.203125 152.902344 87.53125 152.96875 87.769531 C 153.027344 87.992188 153.109375 88.160156 153.203125 88.265625 C 153.296875 88.378906 153.394531 88.441406 153.488281 88.453125 C 153.59375 88.472656 153.683594 88.476562 153.746094 88.476562 C 153.84375 88.476562 153.925781 88.464844 154.007812 88.429688 C 154.101562 88.382812 154.183594 88.324219 154.265625 88.242188 C 154.34375 88.148438 154.410156 88.039062 154.457031 87.910156 C 154.503906 87.769531 154.527344 87.613281 154.527344 87.4375 Z M 154.527344 84.792969 "/>
<path style=" stroke:none;fill-rule:nonzero;fill:rgb(94.898987%,63.529968%,17.248535%);fill-opacity:1;" d="M 162.578125 87.4375 C 162.324219 87.816406 162.058594 88.125 161.773438 88.359375 C 161.503906 88.597656 161.253906 88.796875 161.019531 88.949219 C 160.8125 89.203125 160.550781 89.386719 160.238281 89.492188 C 159.9375 89.589844 159.648438 89.636719 159.363281 89.636719 C 159.015625 89.636719 158.707031 89.578125 158.441406 89.46875 C 158.1875 89.363281 157.976562 89.222656 157.804688 89.042969 C 157.628906 88.875 157.496094 88.683594 157.402344 88.476562 C 157.320312 88.277344 157.285156 88.074219 157.285156 87.886719 C 157.285156 87.667969 157.320312 87.484375 157.402344 87.34375 C 157.496094 87.191406 157.605469 87.078125 157.734375 87.011719 C 157.953125 86.433594 158.140625 85.847656 158.300781 85.265625 C 158.453125 84.683594 158.566406 84.101562 158.632812 83.515625 L 160.332031 83.277344 C 160.523438 84.054688 160.675781 84.671875 160.804688 85.144531 C 160.949219 85.617188 161.054688 86.019531 161.136719 86.351562 C 161.214844 86.671875 161.265625 86.941406 161.300781 87.179688 C 161.332031 87.414062 161.347656 87.675781 161.347656 87.957031 L 161.347656 88.027344 C 161.632812 87.839844 161.875 87.644531 162.082031 87.4375 Z M 158.65625 87.554688 C 158.65625 87.667969 158.613281 87.78125 158.539062 87.886719 C 158.472656 87.980469 158.378906 88.027344 158.253906 88.027344 C 158.1875 88.027344 158.117188 88.023438 158.042969 88.003906 C 157.976562 87.976562 157.929688 87.929688 157.898438 87.863281 C 157.957031 88.148438 158.054688 88.359375 158.183594 88.5 C 158.324219 88.632812 158.527344 88.691406 158.796875 88.691406 C 159.015625 88.691406 159.207031 88.636719 159.363281 88.523438 C 159.535156 88.402344 159.625 88.183594 159.625 87.863281 C 159.625 87.664062 159.605469 87.472656 159.578125 87.296875 C 159.558594 87.125 159.53125 86.9375 159.484375 86.730469 C 159.4375 86.511719 159.363281 86.257812 159.269531 85.972656 C 159.1875 85.675781 159.09375 85.304688 158.988281 84.863281 C 158.902344 85.242188 158.804688 85.613281 158.679688 85.972656 C 158.566406 86.320312 158.449219 86.683594 158.324219 87.058594 C 158.417969 87.09375 158.496094 87.15625 158.5625 87.25 C 158.621094 87.332031 158.65625 87.433594 158.65625 87.554688 Z M 158.65625 87.554688 "/>
<path style=" stroke:none;fill-rule:nonzero;fill:rgb(94.898987%,63.529968%,17.248535%);fill-opacity:1;" d="M 163.78125 81.789062 L 163.78125 83.65625 L 164.488281 83.65625 L 164.488281 84.128906 L 163.78125 84.128906 L 163.78125 87.675781 C 163.78125 88.003906 163.816406 88.230469 163.898438 88.335938 C 163.992188 88.429688 164.15625 88.476562 164.394531 88.476562 C 164.613281 88.476562 164.800781 88.382812 164.960938 88.195312 C 165.113281 87.992188 165.203125 87.738281 165.222656 87.4375 L 165.71875 87.4375 C 165.652344 87.929688 165.539062 88.3125 165.386719 88.597656 C 165.226562 88.878906 165.042969 89.105469 164.84375 89.257812 C 164.652344 89.417969 164.453125 89.515625 164.253906 89.566406 C 164.046875 89.613281 163.863281 89.636719 163.707031 89.636719 C 163.105469 89.636719 162.679688 89.46875 162.433594 89.140625 C 162.195312 88.796875 162.078125 88.347656 162.078125 87.792969 L 162.078125 84.128906 L 161.699219 84.128906 L 161.699219 83.65625 L 162.078125 83.65625 L 162.078125 82.027344 Z M 163.78125 81.789062 "/>
<path style=" stroke:none;fill-rule:nonzero;fill:rgb(94.898987%,63.529968%,17.248535%);fill-opacity:1;" d="M 167.921875 88.644531 C 168.160156 88.644531 168.359375 88.613281 168.535156 88.546875 C 168.726562 88.488281 168.890625 88.402344 169.03125 88.289062 C 169.175781 88.183594 169.296875 88.050781 169.410156 87.910156 C 169.535156 87.769531 169.652344 87.613281 169.765625 87.4375 L 170.167969 87.4375 C 170.054688 87.722656 169.917969 88 169.765625 88.265625 C 169.605469 88.519531 169.417969 88.75 169.199219 88.949219 C 168.972656 89.15625 168.714844 89.324219 168.417969 89.445312 C 168.117188 89.570312 167.761719 89.636719 167.355469 89.636719 C 167.023438 89.636719 166.71875 89.589844 166.433594 89.492188 C 166.148438 89.386719 165.894531 89.222656 165.675781 88.996094 C 165.46875 88.777344 165.3125 88.5 165.203125 88.171875 C 165.09375 87.828125 165.039062 87.410156 165.039062 86.917969 C 165.039062 86.585938 165.070312 86.226562 165.132812 85.832031 C 165.210938 85.441406 165.347656 85.074219 165.535156 84.746094 C 165.726562 84.414062 165.972656 84.140625 166.292969 83.917969 C 166.621094 83.699219 167.035156 83.585938 167.542969 83.585938 C 167.921875 83.585938 168.210938 83.652344 168.417969 83.777344 C 168.621094 83.886719 168.773438 84.023438 168.867188 84.175781 C 168.960938 84.335938 169.015625 84.496094 169.03125 84.648438 C 169.0625 84.792969 169.078125 84.898438 169.078125 84.957031 C 169.078125 85.324219 169.007812 85.636719 168.867188 85.902344 C 168.738281 86.171875 168.566406 86.398438 168.347656 86.585938 C 168.140625 86.765625 167.898438 86.90625 167.613281 87.011719 C 167.332031 87.105469 167.046875 87.167969 166.765625 87.179688 C 166.765625 87.699219 166.847656 88.074219 167.023438 88.3125 C 167.195312 88.535156 167.496094 88.644531 167.921875 88.644531 Z M 168.160156 84.980469 C 168.160156 84.695312 168.109375 84.503906 168.015625 84.390625 C 167.921875 84.285156 167.816406 84.222656 167.710938 84.222656 C 167.578125 84.222656 167.460938 84.289062 167.355469 84.414062 C 167.242188 84.542969 167.140625 84.714844 167.046875 84.933594 C 166.964844 85.15625 166.90625 85.417969 166.859375 85.714844 C 166.8125 85.996094 166.777344 86.296875 166.765625 86.609375 C 166.953125 86.597656 167.128906 86.539062 167.308594 86.445312 C 167.480469 86.351562 167.625 86.234375 167.757812 86.089844 C 167.878906 85.949219 167.976562 85.785156 168.039062 85.59375 C 168.117188 85.40625 168.160156 85.203125 168.160156 84.980469 Z M 168.160156 84.980469 "/>
<path style=" stroke:none;fill-rule:nonzero;fill:rgb(0%,0%,0%);fill-opacity:1;" d="M 91.269531 125.601562 L 85.722656 125.601562 L 85.722656 111.824219 C 85.722656 111.386719 85.464844 111.128906 85.03125 111.128906 L 80.566406 111.128906 C 80.046875 111.128906 79.835938 111.386719 79.835938 111.824219 L 79.835938 145.09375 C 79.835938 145.527344 80.046875 145.785156 80.566406 145.785156 L 85.03125 145.785156 C 85.464844 145.785156 85.722656 145.527344 85.722656 145.09375 L 85.722656 131.320312 L 91.269531 131.320312 L 91.269531 145.09375 C 91.269531 145.527344 91.53125 145.785156 91.960938 145.785156 L 96.421875 145.785156 C 96.941406 145.785156 97.160156 145.527344 97.160156 145.09375 L 97.160156 111.824219 C 97.160156 111.386719 96.941406 111.128906 96.421875 111.128906 L 91.960938 111.128906 C 91.53125 111.128906 91.269531 111.386719 91.269531 111.824219 Z M 91.269531 125.601562 "/>
<path style=" stroke:none;fill-rule:nonzero;fill:rgb(0%,0%,0%);fill-opacity:1;" d="M 118.855469 117.367188 C 118.855469 113.296875 116.648438 111.128906 112.578125 111.128906 L 102.179688 111.128906 C 101.75 111.128906 101.488281 111.347656 101.488281 111.824219 L 101.488281 145.09375 C 101.488281 145.527344 101.75 145.785156 102.179688 145.785156 L 112.578125 145.785156 C 116.648438 145.785156 118.855469 143.617188 118.855469 139.546875 L 118.855469 131.578125 C 118.855469 129.972656 117.6875 128.761719 116.128906 128.5 L 116.128906 128.414062 C 117.6875 128.152344 118.855469 126.941406 118.855469 125.339844 Z M 113.097656 123.910156 C 113.097656 124.992188 112.488281 125.601562 111.367188 125.601562 L 107.421875 125.601562 L 107.421875 116.847656 L 111.367188 116.847656 C 112.535156 116.847656 113.097656 117.453125 113.097656 118.582031 Z M 113.097656 138.335938 C 113.097656 139.507812 112.488281 140.066406 111.367188 140.066406 L 107.421875 140.066406 L 107.421875 131.320312 L 111.367188 131.320312 C 112.535156 131.320312 113.097656 131.921875 113.097656 133.050781 Z M 113.097656 138.335938 "/>
<path style=" stroke:none;fill-rule:nonzero;fill:rgb(0%,0%,0%);fill-opacity:1;" d="M 134.019531 145.09375 C 134.019531 145.566406 134.230469 145.785156 134.710938 145.785156 L 145.105469 145.785156 C 149.175781 145.785156 151.34375 143.617188 151.34375 139.546875 L 151.34375 117.414062 C 151.34375 113.335938 149.175781 111.128906 145.105469 111.128906 L 134.710938 111.128906 C 134.230469 111.128906 134.019531 111.386719 134.019531 111.824219 Z M 139.90625 140.066406 L 139.90625 116.847656 L 143.894531 116.847656 C 145.015625 116.847656 145.625 117.453125 145.625 118.625 L 145.625 138.335938 C 145.625 139.507812 145.015625 140.066406 143.894531 140.066406 Z M 139.90625 140.066406 "/>
<path style=" stroke:none;fill-rule:nonzero;fill:rgb(0%,0%,0%);fill-opacity:1;" d="M 156.367188 111.128906 C 155.886719 111.128906 155.675781 111.386719 155.675781 111.824219 L 155.675781 145.09375 C 155.675781 145.527344 155.886719 145.785156 156.367188 145.785156 L 160.875 145.785156 C 161.304688 145.785156 161.5625 145.527344 161.5625 145.09375 L 161.5625 111.824219 C 161.5625 111.386719 161.304688 111.128906 160.875 111.128906 Z M 156.367188 111.128906 "/>
<path style=" stroke:none;fill-rule:nonzero;fill:rgb(0%,0%,0%);fill-opacity:1;" d="M 171.789062 140.066406 L 182.09375 140.066406 C 182.574219 140.066406 182.792969 140.328125 182.792969 140.757812 L 182.792969 145.09375 C 182.792969 145.566406 182.574219 145.785156 182.09375 145.785156 L 166.589844 145.785156 C 166.15625 145.785156 165.898438 145.566406 165.898438 145.09375 L 165.898438 111.824219 C 165.898438 111.386719 166.15625 111.128906 166.589844 111.128906 L 171.097656 111.128906 C 171.570312 111.128906 171.789062 111.386719 171.789062 111.824219 Z M 171.789062 140.066406 "/>
<path style=" stroke:none;fill-rule:nonzero;fill:rgb(0%,0%,0%);fill-opacity:1;" d="M 204.488281 117.367188 C 204.488281 113.296875 202.277344 111.128906 198.25 111.128906 L 193.398438 111.128906 C 189.328125 111.128906 187.121094 113.296875 187.121094 117.367188 L 187.121094 139.546875 C 187.121094 143.617188 189.328125 145.785156 193.398438 145.785156 L 198.25 145.785156 C 202.277344 145.785156 204.488281 143.617188 204.488281 139.546875 L 204.488281 134.867188 C 204.488281 134.4375 204.226562 134.175781 203.796875 134.175781 L 199.464844 134.175781 C 198.988281 134.175781 198.769531 134.4375 198.769531 134.867188 L 198.769531 138.335938 C 198.769531 139.507812 198.167969 140.066406 197.039062 140.066406 L 194.789062 140.066406 C 193.660156 140.066406 193.050781 139.507812 193.050781 138.335938 L 193.050781 118.582031 C 193.050781 117.453125 193.617188 116.847656 194.789062 116.847656 L 197.039062 116.847656 C 198.167969 116.847656 198.769531 117.453125 198.769531 118.582031 L 198.769531 122.042969 C 198.769531 122.480469 198.988281 122.742188 199.464844 122.742188 L 203.796875 122.742188 C 204.226562 122.742188 204.488281 122.480469 204.488281 122.042969 Z M 204.488281 117.367188 "/>
<g clip-path="url(#clip3)" clip-rule="nonzero">
<path style=" stroke:none;fill-rule:nonzero;fill:rgb(94.898987%,63.529968%,17.248535%);fill-opacity:1;" d="M 31.773438 155.738281 L 250.671875 155.738281 L 250.671875 181.824219 L 31.773438 181.824219 Z M 31.773438 155.738281 "/>
</g>
<path style=" stroke:none;fill-rule:nonzero;fill:rgb(100%,100%,100%);fill-opacity:1;" d="M 92.472656 167.371094 L 90.25 167.371094 L 90.25 161.859375 C 90.25 161.683594 90.148438 161.582031 89.972656 161.582031 L 88.1875 161.582031 C 87.980469 161.582031 87.894531 161.683594 87.894531 161.859375 L 87.894531 175.179688 C 87.894531 175.351562 87.980469 175.457031 88.1875 175.457031 L 89.972656 175.457031 C 90.148438 175.457031 90.25 175.351562 90.25 175.179688 L 90.25 169.664062 L 92.472656 169.664062 L 92.472656 175.179688 C 92.472656 175.351562 92.578125 175.457031 92.75 175.457031 L 94.539062 175.457031 C 94.746094 175.457031 94.835938 175.351562 94.835938 175.179688 L 94.835938 161.859375 C 94.835938 161.683594 94.746094 161.582031 94.539062 161.582031 L 92.75 161.582031 C 92.578125 161.582031 92.472656 161.683594 92.472656 161.859375 Z M 92.472656 167.371094 "/>
<path style=" stroke:none;fill-rule:nonzero;fill:rgb(100%,100%,100%);fill-opacity:1;" d="M 98.128906 172.960938 C 98.128906 174.589844 99 175.457031 100.628906 175.457031 L 102.574219 175.457031 C 104.203125 175.457031 105.070312 174.589844 105.070312 172.960938 L 105.070312 164.082031 C 105.070312 162.445312 104.203125 161.582031 102.574219 161.582031 L 100.628906 161.582031 C 99 161.582031 98.128906 162.445312 98.128906 164.082031 Z M 101.132812 173.21875 C 100.683594 173.21875 100.433594 172.996094 100.433594 172.527344 L 100.433594 164.511719 C 100.433594 164.0625 100.683594 163.816406 101.132812 163.816406 L 102.136719 163.816406 C 102.589844 163.816406 102.832031 164.0625 102.832031 164.511719 L 102.832031 172.527344 C 102.832031 172.996094 102.589844 173.21875 102.136719 173.21875 Z M 101.132812 173.21875 "/>
<path style=" stroke:none;fill-rule:nonzero;fill:rgb(100%,100%,100%);fill-opacity:1;" d="M 115.613281 161.582031 C 115.40625 161.582031 115.289062 161.683594 115.234375 161.890625 L 113.308594 170.53125 L 111.382812 161.890625 C 111.332031 161.683594 111.207031 161.582031 111 161.582031 L 108.714844 161.582031 C 108.484375 161.582031 108.363281 161.699219 108.363281 161.925781 L 108.363281 175.109375 C 108.363281 175.335938 108.484375 175.457031 108.714844 175.457031 L 110.308594 175.457031 C 110.53125 175.457031 110.652344 175.335938 110.652344 175.109375 L 110.652344 167.308594 L 110.773438 167.308594 L 112.496094 175.144531 C 112.546875 175.351562 112.664062 175.457031 112.871094 175.457031 L 113.722656 175.457031 C 113.9375 175.457031 114.054688 175.351562 114.105469 175.144531 L 115.824219 167.308594 L 115.945312 167.308594 L 115.945312 175.109375 C 115.945312 175.335938 116.066406 175.457031 116.292969 175.457031 L 117.90625 175.457031 C 118.128906 175.457031 118.253906 175.335938 118.253906 175.109375 L 118.253906 161.925781 C 118.253906 161.699219 118.128906 161.582031 117.90625 161.582031 Z M 115.613281 161.582031 "/>
<path style=" stroke:none;fill-rule:nonzero;fill:rgb(100%,100%,100%);fill-opacity:1;" d="M 128.472656 161.859375 C 128.472656 161.683594 128.402344 161.582031 128.195312 161.582031 L 121.808594 161.582031 C 121.648438 161.582031 121.550781 161.683594 121.550781 161.859375 L 121.550781 175.179688 C 121.550781 175.351562 121.648438 175.457031 121.808594 175.457031 L 128.195312 175.457031 C 128.402344 175.457031 128.472656 175.351562 128.472656 175.179688 L 128.472656 173.445312 C 128.472656 173.253906 128.402344 173.167969 128.195312 173.167969 L 123.851562 173.167969 L 123.851562 169.664062 L 127.167969 169.664062 C 127.34375 169.664062 127.445312 169.5625 127.445312 169.367188 L 127.445312 167.648438 C 127.445312 167.460938 127.34375 167.359375 127.167969 167.359375 L 123.851562 167.359375 L 123.851562 163.886719 L 128.195312 163.886719 C 128.402344 163.886719 128.472656 163.769531 128.472656 163.589844 Z M 128.472656 161.859375 "/>
<path style=" stroke:none;fill-rule:nonzero;fill:rgb(100%,100%,100%);fill-opacity:1;" d="M 138.71875 164.082031 C 138.71875 162.445312 137.839844 161.582031 136.210938 161.582031 L 132.042969 161.582031 C 131.867188 161.582031 131.765625 161.664062 131.765625 161.859375 L 131.765625 175.179688 C 131.765625 175.351562 131.867188 175.457031 132.042969 175.457031 L 136.210938 175.457031 C 137.839844 175.457031 138.71875 174.589844 138.71875 172.960938 L 138.71875 169.769531 C 138.71875 169.125 138.253906 168.640625 137.628906 168.535156 L 137.628906 168.5 C 138.253906 168.398438 138.71875 167.914062 138.71875 167.269531 Z M 136.417969 166.699219 C 136.417969 167.128906 136.175781 167.371094 135.71875 167.371094 L 134.140625 167.371094 L 134.140625 163.867188 L 135.71875 163.867188 C 136.191406 163.867188 136.417969 164.109375 136.417969 164.566406 Z M 136.417969 172.476562 C 136.417969 172.941406 136.175781 173.167969 135.71875 173.167969 L 134.140625 173.167969 L 134.140625 169.664062 L 135.71875 169.664062 C 136.191406 169.664062 136.417969 169.90625 136.417969 170.359375 Z M 136.417969 172.476562 "/>
<path style=" stroke:none;fill-rule:nonzero;fill:rgb(100%,100%,100%);fill-opacity:1;" d="M 149.148438 164.082031 C 149.148438 162.445312 148.28125 161.582031 146.652344 161.582031 L 142.296875 161.582031 C 142.121094 161.582031 142.019531 161.683594 142.019531 161.859375 L 142.019531 175.179688 C 142.019531 175.351562 142.121094 175.457031 142.296875 175.457031 L 144.097656 175.457031 C 144.277344 175.457031 144.378906 175.351562 144.378906 175.179688 L 144.378906 170.808594 L 145.578125 170.808594 L 146.738281 175.214844 C 146.777344 175.371094 146.859375 175.457031 147.035156 175.457031 L 148.835938 175.457031 C 149.027344 175.457031 149.132812 175.351562 149.078125 175.144531 L 147.878906 170.601562 C 148.714844 170.238281 149.148438 169.476562 149.148438 168.3125 Z M 144.378906 168.519531 L 144.378906 163.867188 L 146.097656 163.867188 C 146.546875 163.867188 146.789062 164.109375 146.789062 164.566406 L 146.789062 167.828125 C 146.789062 168.277344 146.546875 168.519531 146.097656 168.519531 Z M 144.378906 168.519531 "/>
<path style=" stroke:none;fill-rule:nonzero;fill:rgb(100%,100%,100%);fill-opacity:1;" d="M 159.367188 161.859375 C 159.367188 161.683594 159.296875 161.582031 159.089844 161.582031 L 152.707031 161.582031 C 152.546875 161.582031 152.445312 161.683594 152.445312 161.859375 L 152.445312 175.179688 C 152.445312 175.351562 152.546875 175.457031 152.707031 175.457031 L 159.089844 175.457031 C 159.296875 175.457031 159.367188 175.351562 159.367188 175.179688 L 159.367188 173.445312 C 159.367188 173.253906 159.296875 173.167969 159.089844 173.167969 L 154.75 173.167969 L 154.75 169.664062 L 158.0625 169.664062 C 158.242188 169.664062 158.339844 169.5625 158.339844 169.367188 L 158.339844 167.648438 C 158.339844 167.460938 158.242188 167.359375 158.0625 167.359375 L 154.75 167.359375 L 154.75 163.886719 L 159.089844 163.886719 C 159.296875 163.886719 159.367188 163.769531 159.367188 163.589844 Z M 159.367188 161.859375 "/>
<path style=" stroke:none;fill-rule:nonzero;fill:rgb(100%,100%,100%);fill-opacity:1;" d="M 172.152344 161.582031 C 171.945312 161.582031 171.800781 161.699219 171.789062 161.90625 L 171.074219 170.03125 L 170.988281 170.03125 L 169.292969 161.890625 C 169.238281 161.683594 169.113281 161.582031 168.90625 161.582031 L 167.867188 161.582031 C 167.660156 161.582031 167.539062 161.683594 167.484375 161.890625 L 165.769531 170.03125 L 165.683594 170.03125 L 165.003906 161.90625 C 164.984375 161.699219 164.851562 161.582031 164.644531 161.582031 L 162.996094 161.582031 C 162.765625 161.582031 162.644531 161.71875 162.664062 161.941406 L 164.085938 175.128906 C 164.105469 175.351562 164.222656 175.457031 164.449219 175.457031 L 166.183594 175.457031 C 166.390625 175.457031 166.515625 175.351562 166.570312 175.164062 L 168.386719 167.308594 L 170.191406 175.144531 C 170.242188 175.351562 170.367188 175.457031 170.574219 175.457031 L 172.273438 175.457031 C 172.5 175.457031 172.625 175.351562 172.636719 175.128906 L 174.128906 161.941406 C 174.148438 161.71875 174.023438 161.582031 173.800781 161.582031 Z M 172.152344 161.582031 "/>
<path style=" stroke:none;fill-rule:nonzero;fill:rgb(100%,100%,100%);fill-opacity:1;" d="M 184.351562 161.859375 C 184.351562 161.683594 184.277344 161.582031 184.070312 161.582031 L 177.6875 161.582031 C 177.527344 161.582031 177.425781 161.683594 177.425781 161.859375 L 177.425781 175.179688 C 177.425781 175.351562 177.527344 175.457031 177.6875 175.457031 L 184.070312 175.457031 C 184.277344 175.457031 184.351562 175.351562 184.351562 175.179688 L 184.351562 173.445312 C 184.351562 173.253906 184.277344 173.167969 184.070312 173.167969 L 179.730469 173.167969 L 179.730469 169.664062 L 183.042969 169.664062 C 183.222656 169.664062 183.320312 169.5625 183.320312 169.367188 L 183.320312 167.648438 C 183.320312 167.460938 183.222656 167.359375 183.042969 167.359375 L 179.730469 167.359375 L 179.730469 163.886719 L 184.070312 163.886719 C 184.277344 163.886719 184.351562 163.769531 184.351562 163.589844 Z M 184.351562 161.859375 "/>
<path style=" stroke:none;fill-rule:nonzero;fill:rgb(100%,100%,100%);fill-opacity:1;" d="M 187.644531 175.179688 C 187.644531 175.371094 187.734375 175.457031 187.921875 175.457031 L 192.085938 175.457031 C 193.71875 175.457031 194.585938 174.589844 194.585938 172.960938 L 194.585938 164.09375 C 194.585938 162.460938 193.71875 161.582031 192.085938 161.582031 L 187.921875 161.582031 C 187.734375 161.582031 187.644531 161.683594 187.644531 161.859375 Z M 190 173.167969 L 190 163.867188 L 191.597656 163.867188 C 192.050781 163.867188 192.292969 164.109375 192.292969 164.582031 L 192.292969 172.476562 C 192.292969 172.941406 192.050781 173.167969 191.597656 173.167969 Z M 190 173.167969 "/>
<path style=" stroke:none;fill-rule:nonzero;fill:rgb(0%,0%,0%);fill-opacity:1;" d="M 40.792969 184.65625 C 40.714844 184.527344 40.550781 184.480469 40.421875 184.558594 L 33.265625 188.722656 C 32.949219 188.90625 32.699219 188.828125 32.523438 188.527344 L 32.167969 187.914062 C 31.992188 187.605469 32.042969 187.351562 32.363281 187.167969 L 39.515625 183.003906 C 39.648438 182.925781 39.6875 182.761719 39.613281 182.632812 L 38.957031 181.503906 C 38.878906 181.375 38.714844 181.332031 38.582031 181.402344 L 31.105469 185.761719 C 30 186.40625 29.753906 187.332031 30.394531 188.4375 L 31.164062 189.753906 C 31.808594 190.859375 32.734375 191.109375 33.839844 190.464844 L 41.324219 186.109375 C 41.453125 186.035156 41.496094 185.867188 41.417969 185.738281 Z M 40.792969 184.65625 "/>
<path style=" stroke:none;fill-rule:nonzero;fill:rgb(0%,0%,0%);fill-opacity:1;" d="M 43.359375 191.238281 C 43.273438 191.113281 43.167969 191.101562 43.054688 191.171875 L 38.75 194.019531 L 41.675781 189.015625 C 41.75 188.902344 41.757812 188.820312 41.691406 188.714844 L 41.09375 187.816406 C 41.023438 187.703125 40.90625 187.679688 40.792969 187.757812 L 33.210938 192.773438 C 33.097656 192.84375 33.074219 192.960938 33.148438 193.074219 L 33.851562 194.144531 C 33.9375 194.265625 34.042969 194.277344 34.15625 194.203125 L 38.460938 191.355469 L 35.535156 196.359375 C 35.460938 196.46875 35.453125 196.558594 35.519531 196.660156 L 36.117188 197.558594 C 36.1875 197.667969 36.304688 197.691406 36.417969 197.617188 L 44 192.605469 C 44.113281 192.53125 44.136719 192.417969 44.0625 192.304688 Z M 43.359375 191.238281 "/>
<path style=" stroke:none;fill-rule:nonzero;fill:rgb(0%,0%,0%);fill-opacity:1;" d="M 41.074219 204.269531 C 41.175781 204.398438 41.277344 204.40625 41.375 204.28125 L 47.292969 197.003906 C 47.382812 196.902344 47.378906 196.800781 47.308594 196.707031 L 46.167969 195.195312 C 46.09375 195.09375 46 195.066406 45.878906 195.125 L 37.242188 198.792969 C 37.097656 198.84375 37.074219 198.953125 37.164062 199.070312 L 37.96875 200.132812 C 38.039062 200.234375 38.132812 200.246094 38.25 200.199219 L 39.875 199.5 L 41.410156 201.546875 L 40.300781 202.925781 C 40.21875 203.023438 40.207031 203.117188 40.28125 203.21875 Z M 42.421875 200.261719 L 41.386719 198.894531 L 44.859375 197.351562 Z M 42.421875 200.261719 "/>
<path style=" stroke:none;fill-rule:nonzero;fill:rgb(0%,0%,0%);fill-opacity:1;" d="M 44.550781 208.113281 C 44.449219 208.203125 44.445312 208.320312 44.539062 208.421875 L 45.417969 209.425781 C 45.519531 209.539062 45.625 209.53125 45.726562 209.4375 L 47.75 207.625 L 48.902344 208.886719 C 49.773438 209.832031 50.730469 209.882812 51.675781 209.035156 L 53.660156 207.253906 C 54.609375 206.402344 54.664062 205.4375 53.804688 204.488281 L 51.625 202.054688 C 51.53125 201.953125 51.417969 201.949219 51.3125 202.042969 Z M 49.058594 206.449219 L 51.34375 204.394531 L 52.265625 205.398438 C 52.507812 205.667969 52.484375 205.929688 52.222656 206.164062 L 50.746094 207.496094 C 50.492188 207.71875 50.21875 207.726562 49.972656 207.453125 Z M 49.058594 206.449219 "/>
<path style=" stroke:none;fill-rule:nonzero;fill:rgb(0%,0%,0%);fill-opacity:1;" d="M 53.753906 218.070312 C 53.875 218.183594 53.980469 218.171875 54.058594 218.042969 L 58.855469 209.980469 C 58.925781 209.859375 58.90625 209.765625 58.816406 209.679688 L 57.476562 208.347656 C 57.386719 208.261719 57.292969 208.242188 57.175781 208.320312 L 49.164062 213.203125 C 49.035156 213.289062 49.023438 213.386719 49.128906 213.492188 L 50.082031 214.433594 C 50.164062 214.523438 50.265625 214.523438 50.371094 214.449219 L 51.871094 213.53125 L 53.691406 215.324219 L 52.796875 216.855469 C 52.726562 216.960938 52.726562 217.054688 52.816406 217.144531 Z M 54.507812 213.90625 L 53.28125 212.703125 L 56.496094 210.675781 Z M 54.507812 213.90625 "/>
<path style=" stroke:none;fill-rule:nonzero;fill:rgb(0%,0%,0%);fill-opacity:1;" d="M 62.71875 213.300781 C 61.769531 212.46875 60.800781 212.523438 59.957031 213.484375 L 58.402344 215.25 C 58.230469 215.445312 58.214844 215.644531 58.34375 215.871094 L 60.097656 218.824219 L 59.195312 219.859375 C 58.953125 220.136719 58.691406 220.140625 58.425781 219.90625 L 57.871094 219.421875 C 57.617188 219.195312 57.582031 218.929688 57.824219 218.652344 L 58.199219 218.222656 C 58.296875 218.109375 58.289062 218.015625 58.175781 217.914062 L 57.144531 217.011719 C 57.042969 216.921875 56.9375 216.917969 56.835938 217.027344 L 56.25 217.695312 C 55.414062 218.652344 55.484375 219.628906 56.433594 220.460938 L 57.582031 221.464844 C 58.539062 222.308594 59.5 222.25 60.34375 221.289062 L 62.035156 219.363281 C 62.207031 219.171875 62.21875 218.964844 62.101562 218.753906 L 60.328125 215.78125 L 61.089844 214.914062 C 61.320312 214.648438 61.605469 214.636719 61.859375 214.859375 L 62.417969 215.355469 C 62.695312 215.597656 62.703125 215.859375 62.472656 216.125 L 62.09375 216.554688 C 62.003906 216.65625 62.011719 216.773438 62.113281 216.863281 L 63.144531 217.765625 C 63.257812 217.867188 63.363281 217.851562 63.453125 217.75 L 64.042969 217.074219 C 64.886719 216.113281 64.828125 215.148438 63.867188 214.304688 Z M 62.71875 213.300781 "/>
<path style=" stroke:none;fill-rule:nonzero;fill:rgb(0%,0%,0%);fill-opacity:1;" d="M 67.761719 217.542969 C 66.769531 216.765625 65.800781 216.871094 65.011719 217.875 L 63.558594 219.730469 C 63.398438 219.929688 63.398438 220.136719 63.539062 220.351562 L 65.453125 223.203125 L 64.601562 224.285156 C 64.378906 224.574219 64.117188 224.597656 63.839844 224.378906 L 63.261719 223.925781 C 62.996094 223.710938 62.941406 223.445312 63.167969 223.164062 L 63.523438 222.707031 C 63.617188 222.589844 63.605469 222.496094 63.488281 222.40625 L 62.40625 221.554688 C 62.292969 221.472656 62.1875 221.472656 62.097656 221.589844 L 61.550781 222.289062 C 60.761719 223.292969 60.886719 224.261719 61.886719 225.042969 L 63.085938 225.980469 C 64.089844 226.773438 65.046875 226.652344 65.835938 225.648438 L 67.414062 223.636719 C 67.574219 223.433594 67.582031 223.226562 67.445312 223.019531 L 65.511719 220.15625 L 66.222656 219.238281 C 66.441406 218.960938 66.722656 218.9375 66.988281 219.152344 L 67.582031 219.613281 C 67.871094 219.835938 67.886719 220.097656 67.667969 220.375 L 67.316406 220.828125 C 67.230469 220.9375 67.25 221.046875 67.355469 221.128906 L 68.4375 221.980469 C 68.554688 222.074219 68.65625 222.050781 68.742188 221.945312 L 69.292969 221.238281 C 70.085938 220.234375 69.972656 219.277344 68.960938 218.484375 Z M 67.761719 217.542969 "/>
<path style=" stroke:none;fill-rule:nonzero;fill:rgb(0%,0%,0%);fill-opacity:1;" d="M 66.09375 228.25 C 65.976562 228.160156 65.96875 228.054688 66.046875 227.941406 L 71.363281 220.570312 C 71.441406 220.457031 71.546875 220.433594 71.664062 220.515625 L 72.816406 221.34375 C 72.921875 221.425781 72.941406 221.539062 72.863281 221.652344 L 67.546875 229.027344 C 67.46875 229.136719 67.351562 229.152344 67.246094 229.078125 Z M 66.09375 228.25 "/>
<path style=" stroke:none;fill-rule:nonzero;fill:rgb(0%,0%,0%);fill-opacity:1;" d="M 69.792969 228.503906 C 69.089844 229.566406 69.277344 230.511719 70.347656 231.214844 L 71.617188 232.054688 C 72.6875 232.761719 73.632812 232.566406 74.335938 231.5 L 77.421875 226.820312 C 78.125 225.757812 77.9375 224.8125 76.867188 224.109375 L 75.597656 223.265625 C 74.527344 222.5625 73.585938 222.757812 72.882812 223.820312 Z M 71.609375 229.945312 C 71.316406 229.75 71.25 229.496094 71.457031 229.195312 L 74.167969 225.082031 C 74.363281 224.789062 74.628906 224.730469 74.925781 224.925781 L 75.652344 225.410156 C 75.945312 225.601562 76 225.863281 75.804688 226.160156 L 73.09375 230.269531 C 72.886719 230.578125 72.632812 230.625 72.335938 230.429688 Z M 71.609375 229.945312 "/>
<path style=" stroke:none;fill-rule:nonzero;fill:rgb(0%,0%,0%);fill-opacity:1;" d="M 83.203125 227.96875 C 83.074219 227.890625 82.972656 227.925781 82.902344 228.042969 L 80.308594 232.503906 L 80.710938 226.71875 C 80.730469 226.589844 80.695312 226.507812 80.585938 226.449219 L 79.660156 225.90625 C 79.542969 225.839844 79.429688 225.871094 79.363281 225.980469 L 74.792969 233.84375 C 74.726562 233.960938 74.757812 234.074219 74.871094 234.140625 L 75.980469 234.785156 C 76.109375 234.859375 76.210938 234.824219 76.277344 234.707031 L 78.867188 230.246094 L 78.46875 236.03125 C 78.457031 236.160156 78.484375 236.242188 78.589844 236.300781 L 79.519531 236.84375 C 79.636719 236.910156 79.75 236.882812 79.820312 236.761719 L 84.386719 228.90625 C 84.457031 228.789062 84.425781 228.675781 84.308594 228.609375 Z M 83.203125 227.96875 "/>
<path style=" stroke:none;fill-rule:nonzero;fill:rgb(0%,0%,0%);fill-opacity:1;" d="M 90.25 231.90625 C 90.308594 231.785156 90.296875 231.6875 90.15625 231.613281 L 85.6875 229.351562 C 85.578125 229.289062 85.464844 229.328125 85.40625 229.449219 L 81.289062 237.554688 C 81.230469 237.679688 81.265625 237.785156 81.375 237.84375 L 85.84375 240.113281 C 85.984375 240.183594 86.074219 240.136719 86.132812 240.011719 L 86.746094 238.800781 C 86.816406 238.664062 86.800781 238.582031 86.652344 238.507812 L 83.65625 236.988281 L 84.566406 235.191406 L 86.847656 236.351562 C 86.96875 236.410156 87.078125 236.375 87.148438 236.242188 L 87.757812 235.039062 C 87.828125 234.910156 87.792969 234.796875 87.667969 234.738281 L 85.386719 233.574219 L 86.332031 231.707031 L 89.332031 233.230469 C 89.480469 233.300781 89.570312 233.242188 89.628906 233.117188 Z M 90.25 231.90625 "/>
<path style=" stroke:none;fill-rule:nonzero;fill:rgb(0%,0%,0%);fill-opacity:1;" d="M 87.597656 240.621094 C 87.519531 240.777344 87.566406 240.910156 87.730469 240.980469 L 88.039062 241.121094 L 87.046875 241.984375 C 86.96875 242.054688 86.976562 242.132812 87.078125 242.179688 L 87.632812 242.433594 C 87.707031 242.46875 87.753906 242.457031 87.820312 242.414062 L 88.953125 241.707031 C 89.0625 241.636719 89.125 241.558594 89.183594 241.433594 L 89.742188 240.222656 C 89.8125 240.0625 89.765625 239.933594 89.605469 239.863281 L 88.476562 239.347656 C 88.316406 239.273438 88.191406 239.320312 88.117188 239.480469 Z M 87.597656 240.621094 "/>
<path style=" stroke:none;fill-rule:nonzero;fill:rgb(0%,0%,0%);fill-opacity:1;" d="M 101.609375 238.496094 C 102.066406 237.300781 101.65625 236.417969 100.46875 235.972656 L 99.046875 235.433594 C 97.847656 234.980469 96.960938 235.375 96.507812 236.570312 L 94.527344 241.816406 C 94.074219 243.015625 94.484375 243.894531 95.679688 244.347656 L 97.109375 244.886719 C 98.289062 245.328125 99.183594 244.941406 99.632812 243.742188 L 100.152344 242.371094 C 100.199219 242.242188 100.152344 242.132812 100.027344 242.085938 L 98.828125 241.636719 C 98.6875 241.585938 98.597656 241.636719 98.550781 241.761719 L 98.136719 242.84375 C 98.007812 243.191406 97.769531 243.285156 97.441406 243.164062 L 96.625 242.855469 C 96.292969 242.730469 96.175781 242.496094 96.304688 242.152344 L 98.046875 237.53125 C 98.171875 237.203125 98.410156 237.082031 98.75 237.214844 L 99.566406 237.519531 C 99.898438 237.644531 100.007812 237.894531 99.886719 238.222656 L 99.488281 239.269531 C 99.441406 239.394531 99.476562 239.492188 99.613281 239.546875 L 100.8125 240 C 100.941406 240.050781 101.042969 240 101.097656 239.871094 Z M 101.609375 238.496094 "/>
<path style=" stroke:none;fill-rule:nonzero;fill:rgb(0%,0%,0%);fill-opacity:1;" d="M 105.648438 241.832031 L 103.984375 241.304688 L 105.089844 237.800781 C 105.128906 237.671875 105.078125 237.566406 104.945312 237.53125 L 103.613281 237.105469 C 103.457031 237.058594 103.371094 237.117188 103.328125 237.246094 L 100.59375 245.914062 C 100.550781 246.042969 100.59375 246.144531 100.746094 246.191406 L 102.085938 246.617188 C 102.21875 246.65625 102.316406 246.605469 102.359375 246.472656 L 103.445312 243.019531 L 105.105469 243.542969 L 104.019531 246.996094 C 103.976562 247.125 104.03125 247.230469 104.160156 247.273438 L 105.496094 247.691406 C 105.65625 247.738281 105.742188 247.679688 105.785156 247.554688 L 108.519531 238.882812 C 108.5625 238.753906 108.519531 238.652344 108.359375 238.605469 L 107.027344 238.179688 C 106.894531 238.140625 106.796875 238.191406 106.753906 238.324219 Z M 105.648438 241.832031 "/>
<path style=" stroke:none;fill-rule:nonzero;fill:rgb(0%,0%,0%);fill-opacity:1;" d="M 114.894531 240.542969 C 114.929688 240.414062 114.894531 240.320312 114.742188 240.277344 L 109.882812 239.035156 C 109.765625 239.007812 109.667969 239.066406 109.628906 239.203125 L 107.386719 248.011719 C 107.351562 248.140625 107.410156 248.242188 107.527344 248.269531 L 112.382812 249.511719 C 112.535156 249.550781 112.613281 249.480469 112.644531 249.351562 L 112.980469 248.035156 C 113.019531 247.886719 112.984375 247.808594 112.828125 247.769531 L 109.566406 246.933594 L 110.066406 244.984375 L 112.542969 245.617188 C 112.679688 245.652344 112.777344 245.59375 112.816406 245.445312 L 113.144531 244.140625 C 113.1875 244 113.128906 243.898438 112.992188 243.863281 L 110.515625 243.230469 L 111.03125 241.199219 L 114.292969 242.03125 C 114.449219 242.074219 114.523438 241.992188 114.558594 241.859375 Z M 114.894531 240.542969 "/>
<path style=" stroke:none;fill-rule:nonzero;fill:rgb(0%,0%,0%);fill-opacity:1;" d="M 123.164062 241.902344 C 123.015625 241.878906 122.875 241.980469 122.851562 242.125 L 121.699219 248.945312 C 121.640625 249.304688 121.421875 249.445312 121.074219 249.386719 L 120.375 249.273438 C 120.027344 249.214844 119.867188 249.007812 119.929688 248.644531 L 121.078125 241.824219 C 121.101562 241.679688 121.003906 241.535156 120.855469 241.511719 L 119.566406 241.292969 C 119.417969 241.269531 119.277344 241.371094 119.253906 241.519531 L 118.042969 248.714844 C 117.832031 249.976562 118.386719 250.757812 119.648438 250.96875 L 121.152344 251.222656 C 122.414062 251.4375 123.199219 250.882812 123.40625 249.617188 L 124.625 242.421875 C 124.648438 242.273438 124.546875 242.132812 124.398438 242.109375 Z M 123.164062 241.902344 "/>
<path style=" stroke:none;fill-rule:nonzero;fill:rgb(0%,0%,0%);fill-opacity:1;" d="M 130.085938 242.792969 C 129.9375 242.777344 129.859375 242.847656 129.847656 242.984375 L 129.28125 248.109375 L 127.308594 242.664062 C 127.265625 242.535156 127.203125 242.476562 127.082031 242.464844 L 126.015625 242.34375 C 125.878906 242.328125 125.789062 242.398438 125.773438 242.535156 L 124.78125 251.570312 C 124.761719 251.707031 124.832031 251.796875 124.96875 251.8125 L 126.238281 251.949219 C 126.394531 251.96875 126.46875 251.898438 126.480469 251.761719 L 127.046875 246.632812 L 129.019531 252.082031 C 129.0625 252.210938 129.121094 252.269531 129.246094 252.28125 L 130.316406 252.398438 C 130.449219 252.417969 130.539062 252.347656 130.550781 252.210938 L 131.550781 243.171875 C 131.566406 243.035156 131.492188 242.949219 131.359375 242.929688 Z M 130.085938 242.792969 "/>
<path style=" stroke:none;fill-rule:nonzero;fill:rgb(0%,0%,0%);fill-opacity:1;" d="M 132.347656 252.539062 C 132.195312 252.53125 132.132812 252.445312 132.140625 252.308594 L 132.753906 243.234375 C 132.765625 243.097656 132.835938 243.023438 132.992188 243.035156 L 134.402344 243.128906 C 134.539062 243.140625 134.609375 243.226562 134.605469 243.363281 L 133.988281 252.433594 C 133.984375 252.566406 133.894531 252.644531 133.757812 252.632812 Z M 132.347656 252.539062 "/>
<path style=" stroke:none;fill-rule:nonzero;fill:rgb(0%,0%,0%);fill-opacity:1;" d="M 137.78125 243.289062 C 136.515625 243.253906 135.800781 243.917969 135.765625 245.199219 L 135.707031 247.550781 C 135.699219 247.808594 135.820312 247.976562 136.0625 248.0625 L 139.296875 249.210938 L 139.257812 250.585938 C 139.25 250.953125 139.054688 251.125 138.703125 251.117188 L 137.960938 251.09375 C 137.625 251.089844 137.425781 250.90625 137.4375 250.539062 L 137.449219 249.964844 C 137.453125 249.816406 137.390625 249.746094 137.234375 249.742188 L 135.867188 249.707031 C 135.730469 249.699219 135.648438 249.765625 135.640625 249.917969 L 135.617188 250.800781 C 135.582031 252.082031 136.261719 252.777344 137.527344 252.8125 L 139.050781 252.855469 C 140.324219 252.890625 141.027344 252.222656 141.058594 250.945312 L 141.128906 248.390625 C 141.136719 248.128906 141.015625 247.964844 140.785156 247.875 L 137.527344 246.730469 L 137.554688 245.570312 C 137.5625 245.214844 137.773438 245.035156 138.109375 245.039062 L 138.859375 245.0625 C 139.226562 245.070312 139.398438 245.265625 139.390625 245.617188 L 139.375 246.191406 C 139.375 246.328125 139.453125 246.410156 139.585938 246.414062 L 140.964844 246.449219 C 141.113281 246.457031 141.183594 246.375 141.1875 246.238281 L 141.210938 245.339844 C 141.242188 244.066406 140.578125 243.363281 139.304688 243.332031 Z M 137.78125 243.289062 "/>
<path style=" stroke:none;fill-rule:nonzero;fill:rgb(0%,0%,0%);fill-opacity:1;" d="M 147.925781 245.183594 C 147.882812 243.902344 147.171875 243.242188 145.910156 243.277344 L 144.386719 243.324219 C 143.105469 243.359375 142.429688 244.0625 142.464844 245.339844 L 142.632812 250.945312 C 142.667969 252.226562 143.382812 252.882812 144.65625 252.847656 L 146.179688 252.804688 C 147.445312 252.765625 148.117188 252.066406 148.082031 250.785156 L 148.042969 249.320312 C 148.035156 249.183594 147.953125 249.101562 147.816406 249.109375 L 146.542969 249.144531 C 146.386719 249.148438 146.324219 249.230469 146.328125 249.367188 L 146.359375 250.527344 C 146.371094 250.890625 146.1875 251.074219 145.832031 251.085938 L 144.964844 251.109375 C 144.609375 251.121094 144.414062 250.949219 144.402344 250.578125 L 144.261719 245.640625 C 144.25 245.285156 144.421875 245.089844 144.785156 245.085938 L 145.65625 245.054688 C 146.011719 245.050781 146.210938 245.234375 146.214844 245.585938 L 146.253906 246.703125 C 146.253906 246.839844 146.324219 246.917969 146.476562 246.910156 L 147.753906 246.875 C 147.886719 246.875 147.972656 246.785156 147.964844 246.648438 Z M 147.925781 245.183594 "/>
<path style=" stroke:none;fill-rule:nonzero;fill:rgb(0%,0%,0%);fill-opacity:1;" d="M 154.441406 242.921875 C 154.429688 242.785156 154.371094 242.707031 154.203125 242.71875 L 149.214844 243.140625 C 149.09375 243.152344 149.019531 243.238281 149.03125 243.375 L 149.796875 252.4375 C 149.808594 252.574219 149.898438 252.644531 150.015625 252.632812 L 155.007812 252.210938 C 155.171875 252.199219 155.222656 252.113281 155.210938 251.976562 L 155.089844 250.625 C 155.078125 250.46875 155.019531 250.410156 154.855469 250.421875 L 151.503906 250.707031 L 151.339844 248.699219 L 153.886719 248.484375 C 154.023438 248.472656 154.097656 248.386719 154.085938 248.230469 L 153.972656 246.890625 C 153.957031 246.742188 153.867188 246.664062 153.738281 246.679688 L 151.1875 246.894531 L 151.007812 244.804688 L 154.359375 244.523438 C 154.523438 244.511719 154.566406 244.410156 154.558594 244.273438 Z M 154.441406 242.921875 "/>
<path style=" stroke:none;fill-rule:nonzero;fill:rgb(0%,0%,0%);fill-opacity:1;" d="M 163.730469 241.320312 C 163.875 241.296875 163.953125 241.367188 163.976562 241.503906 L 164.203125 242.84375 C 164.226562 242.980469 164.171875 243.070312 164.023438 243.09375 L 162.464844 243.351562 L 163.699219 250.765625 C 163.722656 250.914062 163.671875 250.988281 163.523438 251.015625 L 162.128906 251.25 C 161.992188 251.269531 161.898438 251.214844 161.875 251.066406 L 160.640625 243.660156 L 159.082031 243.917969 C 158.949219 243.941406 158.855469 243.871094 158.832031 243.734375 L 158.609375 242.394531 C 158.585938 242.257812 158.65625 242.171875 158.785156 242.148438 Z M 163.730469 241.320312 "/>
<path style=" stroke:none;fill-rule:nonzero;fill:rgb(0%,0%,0%);fill-opacity:1;" d="M 168.640625 240.269531 C 168.492188 240.300781 168.398438 240.445312 168.433594 240.59375 L 169.925781 247.339844 C 170.007812 247.699219 169.863281 247.914062 169.511719 247.992188 L 168.824219 248.144531 C 168.480469 248.222656 168.253906 248.089844 168.171875 247.730469 L 166.679688 240.984375 C 166.644531 240.835938 166.5 240.742188 166.351562 240.777344 L 165.078125 241.0625 C 164.929688 241.089844 164.835938 241.238281 164.871094 241.386719 L 166.453125 248.503906 C 166.726562 249.757812 167.539062 250.269531 168.785156 249.992188 L 170.277344 249.664062 C 171.527344 249.382812 172.042969 248.574219 171.765625 247.324219 L 170.1875 240.203125 C 170.152344 240.058594 170.003906 239.960938 169.863281 240 Z M 168.640625 240.269531 "/>
<path style=" stroke:none;fill-rule:nonzero;fill:rgb(0%,0%,0%);fill-opacity:1;" d="M 176.015625 238.316406 C 176.160156 238.28125 176.246094 238.339844 176.285156 238.46875 L 176.648438 239.78125 C 176.683594 239.910156 176.644531 240.011719 176.5 240.046875 L 174.976562 240.472656 L 177 247.707031 C 177.035156 247.855469 176.984375 247.9375 176.84375 247.980469 L 175.480469 248.359375 C 175.351562 248.394531 175.25 248.351562 175.214844 248.207031 L 173.195312 240.96875 L 171.675781 241.394531 C 171.546875 241.429688 171.445312 241.371094 171.402344 241.242188 L 171.042969 239.929688 C 171.003906 239.800781 171.0625 239.699219 171.191406 239.664062 Z M 176.015625 238.316406 "/>
<path style=" stroke:none;fill-rule:nonzero;fill:rgb(0%,0%,0%);fill-opacity:1;" d="M 181.777344 236.421875 C 181.917969 236.375 182.007812 236.425781 182.054688 236.558594 L 182.484375 237.851562 C 182.527344 237.980469 182.492188 238.074219 182.351562 238.121094 L 180.851562 238.625 L 183.230469 245.75 C 183.277344 245.890625 183.234375 245.980469 183.09375 246.027344 L 181.753906 246.476562 C 181.625 246.515625 181.523438 246.480469 181.476562 246.339844 L 179.09375 239.214844 L 177.59375 239.710938 C 177.472656 239.757812 177.363281 239.707031 177.324219 239.578125 L 176.890625 238.289062 C 176.84375 238.160156 176.898438 238.050781 177.027344 238.011719 Z M 181.777344 236.421875 "/>
<path style=" stroke:none;fill-rule:nonzero;fill:rgb(0%,0%,0%);fill-opacity:1;" d="M 192.304688 242.53125 C 192.457031 242.472656 192.488281 242.371094 192.394531 242.246094 L 186.921875 234.625 C 186.847656 234.507812 186.75 234.488281 186.640625 234.539062 L 184.878906 235.234375 C 184.765625 235.28125 184.707031 235.363281 184.738281 235.5 L 186.011719 244.792969 C 186.03125 244.945312 186.125 245 186.261719 244.941406 L 187.5 244.449219 C 187.613281 244.402344 187.65625 244.3125 187.632812 244.191406 L 187.390625 242.441406 L 189.765625 241.488281 L 190.804688 242.925781 C 190.875 243.027344 190.964844 243.066406 191.074219 243.019531 Z M 188.789062 240.183594 L 187.195312 240.816406 L 186.621094 237.058594 Z M 188.789062 240.183594 "/>
<path style=" stroke:none;fill-rule:nonzero;fill:rgb(0%,0%,0%);fill-opacity:1;" d="M 197.859375 237.941406 L 200.269531 236.738281 C 200.40625 236.671875 200.5 236.714844 200.566406 236.839844 L 201.171875 238.054688 C 201.238281 238.183594 201.207031 238.28125 201.074219 238.34375 L 197.203125 240.28125 C 197.078125 240.339844 196.980469 240.316406 196.914062 240.179688 L 192.84375 232.054688 C 192.785156 231.929688 192.820312 231.824219 192.9375 231.765625 L 194.207031 231.125 C 194.339844 231.0625 194.4375 231.101562 194.5 231.226562 Z M 197.859375 237.941406 "/>
<path style=" stroke:none;fill-rule:nonzero;fill:rgb(0%,0%,0%);fill-opacity:1;" d="M 208.339844 234.28125 C 208.480469 234.195312 208.5 234.097656 208.386719 233.984375 L 201.902344 227.207031 C 201.8125 227.101562 201.710938 227.097656 201.605469 227.15625 L 199.964844 228.09375 C 199.855469 228.160156 199.816406 228.25 199.855469 228.378906 L 202.425781 237.402344 C 202.460938 237.550781 202.5625 237.585938 202.691406 237.515625 L 203.851562 236.847656 C 203.957031 236.789062 203.980469 236.695312 203.945312 236.578125 L 203.453125 234.882812 L 205.675781 233.605469 L 206.910156 234.882812 C 206.992188 234.96875 207.085938 235 207.195312 234.933594 Z M 204.523438 232.449219 L 203.042969 233.296875 L 201.941406 229.660156 Z M 204.523438 232.449219 "/>
<path style=" stroke:none;fill-rule:nonzero;fill:rgb(0%,0%,0%);fill-opacity:1;" d="M 211.871094 220.734375 C 211.792969 220.621094 211.679688 220.605469 211.570312 220.683594 L 207.457031 223.542969 C 207.332031 223.625 207.320312 223.730469 207.398438 223.84375 L 212.589844 231.308594 C 212.667969 231.421875 212.769531 231.449219 212.890625 231.363281 L 214.054688 230.558594 C 214.167969 230.476562 214.1875 230.363281 214.109375 230.25 L 212.175781 227.46875 L 214.273438 226.011719 C 214.386719 225.933594 214.414062 225.828125 214.332031 225.710938 L 213.554688 224.585938 C 213.476562 224.472656 213.363281 224.457031 213.253906 224.535156 L 211.148438 225.992188 L 209.820312 224.085938 L 212.597656 222.160156 C 212.703125 222.082031 212.726562 221.964844 212.648438 221.851562 Z M 211.871094 220.734375 "/>
<path style=" stroke:none;fill-rule:nonzero;fill:rgb(0%,0%,0%);fill-opacity:1;" d="M 223.601562 223.414062 C 223.734375 223.308594 223.738281 223.199219 223.613281 223.113281 L 216.207031 217.351562 C 216.101562 217.257812 216.007812 217.269531 215.90625 217.339844 L 214.421875 218.511719 C 214.324219 218.585938 214.292969 218.679688 214.359375 218.804688 L 218.210938 227.359375 C 218.269531 227.5 218.375 227.523438 218.492188 227.429688 L 219.539062 226.609375 C 219.632812 226.53125 219.644531 226.4375 219.59375 226.324219 L 218.867188 224.710938 L 220.875 223.136719 L 222.28125 224.210938 C 222.375 224.292969 222.46875 224.304688 222.570312 224.226562 Z M 219.570312 222.15625 L 218.222656 223.210938 L 216.609375 219.773438 Z M 219.570312 222.15625 "/>
<path style=" stroke:none;fill-rule:nonzero;fill:rgb(0%,0%,0%);fill-opacity:1;" d="M 222.738281 211.453125 C 222.617188 211.566406 222.601562 211.691406 222.671875 211.832031 L 225.621094 217.34375 L 220.433594 213.859375 C 220.304688 213.769531 220.171875 213.777344 220.054688 213.882812 L 218.71875 215.085938 C 218.589844 215.207031 218.585938 215.34375 218.703125 215.472656 L 224.726562 222.140625 C 224.847656 222.269531 224.976562 222.277344 225.113281 222.160156 L 226.039062 221.320312 C 226.167969 221.203125 226.175781 221.066406 226.058594 220.9375 L 222.472656 216.964844 L 222.542969 216.902344 L 227.101562 220.042969 C 227.238281 220.125 227.363281 220.121094 227.480469 220.015625 L 228.078125 219.476562 C 228.199219 219.363281 228.214844 219.242188 228.140625 219.105469 L 225.476562 214.242188 L 225.546875 214.183594 L 229.132812 218.148438 C 229.257812 218.285156 229.386719 218.289062 229.523438 218.171875 L 230.464844 217.320312 C 230.59375 217.203125 230.597656 217.066406 230.480469 216.9375 L 224.457031 210.273438 C 224.335938 210.144531 224.203125 210.132812 224.070312 210.253906 Z M 222.738281 211.453125 "/>
<path style=" stroke:none;fill-rule:nonzero;fill:rgb(0%,0%,0%);fill-opacity:1;" d="M 231.960938 215.792969 C 231.855469 215.898438 231.75 215.894531 231.648438 215.792969 L 225.222656 209.367188 C 225.128906 209.273438 225.117188 209.164062 225.222656 209.058594 L 226.226562 208.054688 C 226.320312 207.960938 226.4375 207.960938 226.535156 208.054688 L 232.960938 214.488281 C 233.054688 214.582031 233.054688 214.699219 232.960938 214.796875 Z M 231.960938 215.792969 "/>
<path style=" stroke:none;fill-rule:nonzero;fill:rgb(0%,0%,0%);fill-opacity:1;" d="M 232.800781 212.191406 C 233.742188 213.058594 234.703125 213.023438 235.574219 212.078125 L 236.605469 210.960938 C 237.464844 210.027344 237.433594 209.058594 236.496094 208.191406 L 234.214844 206.085938 C 234.101562 205.988281 233.996094 206 233.902344 206.097656 L 232.40625 207.71875 C 232.304688 207.832031 232.3125 207.925781 232.425781 208.023438 L 233.421875 208.953125 C 233.523438 209.042969 233.628906 209.046875 233.730469 208.933594 L 234.207031 208.414062 L 235.082031 209.21875 C 235.347656 209.464844 235.355469 209.726562 235.113281 209.988281 L 234.523438 210.628906 C 234.28125 210.890625 234.027344 210.90625 233.753906 210.660156 L 230.132812 207.324219 C 229.871094 207.082031 229.847656 206.820312 230.097656 206.554688 L 230.6875 205.910156 C 230.929688 205.652344 231.195312 205.640625 231.457031 205.882812 L 231.945312 206.328125 C 232.046875 206.425781 232.152344 206.429688 232.257812 206.316406 L 233.121094 205.378906 C 233.214844 205.277344 233.210938 205.167969 233.109375 205.070312 L 232.371094 204.386719 C 231.433594 203.523438 230.457031 203.570312 229.601562 204.5 L 228.566406 205.621094 C 227.699219 206.558594 227.738281 207.523438 228.679688 208.390625 Z M 232.800781 212.191406 "/>
<path style=" stroke:none;fill-rule:nonzero;fill:rgb(0%,0%,0%);fill-opacity:1;" d="M 238.816406 205.6875 L 240.535156 203.613281 C 240.632812 203.496094 240.742188 203.496094 240.839844 203.582031 L 241.894531 204.453125 C 242.003906 204.546875 242.015625 204.640625 241.921875 204.757812 L 239.15625 208.089844 C 239.070312 208.195312 238.96875 208.214844 238.851562 208.121094 L 231.851562 202.320312 C 231.742188 202.230469 231.738281 202.117188 231.820312 202.011719 L 232.726562 200.917969 C 232.820312 200.804688 232.925781 200.804688 233.03125 200.890625 Z M 238.816406 205.6875 "/>
<path style=" stroke:none;fill-rule:nonzero;fill:rgb(0%,0%,0%);fill-opacity:1;" d="M 243.15625 203.167969 C 243.0625 203.285156 242.957031 203.289062 242.847656 203.207031 L 235.628906 197.679688 C 235.523438 197.597656 235.5 197.488281 235.589844 197.371094 L 236.453125 196.25 C 236.535156 196.144531 236.652344 196.125 236.757812 196.207031 L 243.972656 201.738281 C 244.085938 201.820312 244.097656 201.9375 244.011719 202.042969 Z M 243.15625 203.167969 "/>
<path style=" stroke:none;fill-rule:nonzero;fill:rgb(0%,0%,0%);fill-opacity:1;" d="M 248.816406 195.332031 C 248.910156 195.195312 248.886719 195.09375 248.738281 195.039062 L 239.980469 191.679688 C 239.847656 191.625 239.761719 191.660156 239.6875 191.761719 L 238.609375 193.316406 C 238.539062 193.417969 238.539062 193.511719 238.632812 193.613281 L 244.804688 200.675781 C 244.90625 200.792969 245.011719 200.789062 245.09375 200.664062 L 245.855469 199.570312 C 245.925781 199.472656 245.910156 199.375 245.828125 199.28125 L 244.664062 197.953125 L 246.128906 195.855469 L 247.78125 196.480469 C 247.898438 196.53125 247.996094 196.511719 248.066406 196.410156 Z M 244.59375 195.300781 L 243.613281 196.707031 L 241.066406 193.882812 Z M 244.59375 195.300781 "/>
<path style=" stroke:none;fill-rule:nonzero;fill:rgb(0%,0%,0%);fill-opacity:1;" d="M 240.511719 188.0625 C 240.4375 188.1875 240.464844 188.289062 240.582031 188.359375 L 246.898438 192.25 C 247.011719 192.320312 247.117188 192.308594 247.199219 192.1875 L 247.890625 191.09375 C 247.960938 190.976562 247.9375 190.863281 247.824219 190.792969 L 241.613281 186.738281 C 241.492188 186.667969 241.382812 186.691406 241.308594 186.804688 Z M 249.402344 193.871094 C 249.550781 193.964844 249.679688 193.933594 249.773438 193.785156 L 250.441406 192.742188 C 250.539062 192.585938 250.507812 192.457031 250.355469 192.363281 L 249.296875 191.695312 C 249.148438 191.601562 249.019531 191.628906 248.925781 191.777344 L 248.257812 192.824219 C 248.164062 192.972656 248.191406 193.109375 248.34375 193.203125 Z M 249.402344 193.871094 "/>
<path style=" stroke:none;fill-rule:nonzero;fill:rgb(0%,0%,0%);fill-opacity:1;" d="M 242.144531 185.453125 C 242.070312 185.578125 242.105469 185.675781 242.222656 185.75 L 248.636719 189.476562 C 248.753906 189.539062 248.855469 189.527344 248.933594 189.398438 L 249.601562 188.289062 C 249.664062 188.171875 249.640625 188.058594 249.523438 187.988281 L 243.203125 184.101562 C 243.089844 184.035156 242.976562 184.058594 242.90625 184.175781 Z M 251.183594 191.023438 C 251.332031 191.117188 251.460938 191.082031 251.554688 190.933594 L 252.1875 189.871094 C 252.28125 189.71875 252.246094 189.589844 252.09375 189.492188 L 251.019531 188.855469 C 250.871094 188.761719 250.742188 188.796875 250.644531 188.949219 L 250.015625 190.011719 C 249.917969 190.160156 249.953125 190.292969 250.109375 190.386719 Z M 251.183594 191.023438 "/>
<path style=" stroke:none;fill-rule:nonzero;fill:rgb(0%,0%,0%);fill-opacity:1;" d="M 243.707031 182.804688 C 243.632812 182.933594 243.671875 183.035156 243.789062 183.097656 L 250.300781 186.65625 C 250.417969 186.71875 250.523438 186.703125 250.597656 186.566406 L 251.226562 185.445312 C 251.300781 185.328125 251.261719 185.214844 251.144531 185.148438 L 244.730469 181.425781 C 244.613281 181.355469 244.5 181.390625 244.433594 181.511719 Z M 252.882812 188.136719 C 253.035156 188.226562 253.164062 188.191406 253.253906 188.03125 L 253.863281 186.957031 C 253.953125 186.804688 253.910156 186.671875 253.757812 186.585938 L 252.667969 185.96875 C 252.515625 185.882812 252.386719 185.917969 252.296875 186.078125 L 251.6875 187.152344 C 251.601562 187.304688 251.640625 187.433594 251.796875 187.523438 Z M 252.882812 188.136719 "/>
</g>
</svg>
